/* XPM */
static char * C:\Users\usuario\Documents\angel_xpm[] = {
"32 32 255 2",
"  	c None",
". 	c #557661",
"+ 	c #76806E",
"@ 	c #888874",
"# 	c #858872",
"$ 	c #848873",
"% 	c #898A73",
"& 	c #848673",
"* 	c #6A7D6A",
"= 	c #77846B",
"- 	c #969974",
"; 	c #888D74",
"> 	c #697F6D",
", 	c #758371",
"' 	c #818373",
") 	c #7C7F73",
"! 	c #7B7F72",
"~ 	c #828873",
"{ 	c #72856D",
"] 	c #848B73",
"^ 	c #A1A177",
"/ 	c #9C9C74",
"( 	c #B0AB79",
"_ 	c #B6B07B",
": 	c #5B746A",
"< 	c #9F9F77",
"[ 	c #D5C680",
"} 	c #858E6D",
"| 	c #7D896D",
"1 	c #999876",
"2 	c #979A75",
"3 	c #959A75",
"4 	c #9C9D76",
"5 	c #9E9E77",
"6 	c #9E9D77",
"7 	c #9D9E76",
"8 	c #9E9F77",
"9 	c #9C9D75",
"0 	c #969774",
"a 	c #72806C",
"b 	c #A48484",
"c 	c #BD908C",
"d 	c #F9AF9E",
"e 	c #A88585",
"f 	c #C3928E",
"g 	c #FBB19E",
"h 	c #FEB29F",
"i 	c #F6AE9D",
"j 	c #B78E88",
"k 	c #977F7D",
"l 	c #E3A397",
"m 	c #FDB19F",
"n 	c #E0A296",
"o 	c #A68582",
"p 	c #777076",
"q 	c #C8968E",
"r 	c #F8AF9D",
"s 	c #ECA89A",
"t 	c #C6948D",
"u 	c #817677",
"v 	c #A28381",
"w 	c #FDB29F",
"x 	c #CF9990",
"y 	c #747270",
"z 	c #B38C87",
"A 	c #F9AF9D",
"B 	c #DCA096",
"C 	c #F2AC9C",
"D 	c #E0A295",
"E 	c #AD8982",
"F 	c #FAB09E",
"G 	c #EBA89A",
"H 	c #E9A799",
"I 	c #D09A93",
"J 	c #E6A699",
"K 	c #B28B8B",
"L 	c #F9B09E",
"M 	c #B68C87",
"N 	c #7B7575",
"O 	c #BD908E",
"P 	c #D79D94",
"Q 	c #B88D8C",
"R 	c #EDA99A",
"S 	c #E0A397",
"T 	c #D19A93",
"U 	c #F1AB9B",
"V 	c #FDB19E",
"W 	c #F5A58C",
"X 	c #FB9B82",
"Y 	c #F7A087",
"Z 	c #FCB09C",
"` 	c #DEA195",
" .	c #BF918B",
"..	c #F3A78E",
"+.	c #F3A88E",
"@.	c #F6AD9A",
"#.	c #E6A497",
"$.	c #EFAA9B",
"%.	c #F4A68C",
"&.	c #FC8A6D",
"*.	c #FE896D",
"=.	c #FB8A6D",
"-.	c #F5A991",
";.	c #EEA899",
">.	c #D69D93",
",.	c #FDB19D",
"'.	c #F4987B",
").	c #F3987B",
"!.	c #F7AE9D",
"~.	c #F6AA92",
"{.	c #F69172",
"].	c #F88B6C",
"^.	c #F6977A",
"/.	c #FAB09B",
"(.	c #E1A396",
"_.	c #D19B91",
":.	c #F9AF99",
"<.	c #FA8F72",
"[.	c #FD8A6D",
"}.	c #F49D81",
"|.	c #FDB29E",
"1.	c #C27E74",
"2.	c #B07D7C",
"3.	c #F4AD9C",
"4.	c #FAAF9A",
"5.	c #F9AD97",
"6.	c #FCB19D",
"7.	c #C3938B",
"8.	c #A98783",
"9.	c #FCB19E",
"0.	c #F8AC95",
"a.	c #F7A389",
"b.	c #F6A58C",
"c.	c #B98986",
"d.	c #F9876D",
"e.	c #E9826D",
"f.	c #CA958E",
"g.	c #827776",
"h.	c #D79D93",
"i.	c #B88885",
"j.	c #FB886D",
"k.	c #C48781",
"l.	c #B28988",
"m.	c #72766E",
"n.	c #DA9F93",
"o.	c #CE958E",
"p.	c #EC836D",
"q.	c #F7876D",
"r.	c #C18783",
"s.	c #F6AE9C",
"t.	c #B58B89",
"u.	c #738691",
"v.	c #697B85",
"w.	c #4F6F7B",
"x.	c #BA8F89",
"y.	c #EFAA9A",
"z.	c #F0AA9B",
"A.	c #AD7F7E",
"B.	c #B17C7A",
"C.	c #E5A497",
"D.	c #D69D92",
"E.	c #8F7C7B",
"F.	c #A6ACAB",
"G.	c #CBC7C4",
"H.	c #CBC8C6",
"I.	c #E8E1DB",
"J.	c #9B9EA4",
"K.	c #97A5A1",
"L.	c #CDCBC8",
"M.	c #B8B9B7",
"N.	c #ADAFB0",
"O.	c #658183",
"P.	c #747075",
"Q.	c #AD8A84",
"R.	c #D59C91",
"S.	c #D99E95",
"T.	c #B48A88",
"U.	c #907B7C",
"V.	c #C2C2BE",
"W.	c #FEF2E8",
"X.	c #FFF3E9",
"Y.	c #EEE5DE",
"Z.	c #C9C7C4",
"`.	c #87949A",
" +	c #EFE6DF",
".+	c #EDE5DD",
"++	c #8C989B",
"@+	c #5B656F",
"#+	c #A28186",
"$+	c #B58D8D",
"%+	c #C0918E",
"&+	c #D09791",
"*+	c #DEA094",
"=+	c #7D7872",
"-+	c #EEE5DD",
";+	c #DAD6D3",
">+	c #E7E0DB",
",+	c #D0CCCA",
"'+	c #7C8E95",
")+	c #808E99",
"!+	c #DDD8D4",
"~+	c #EDE5DE",
"{+	c #EEE6DF",
"]+	c #CAC9C6",
"^+	c #8E7B7C",
"/+	c #D99E94",
"(+	c #EDE4DD",
"_+	c #F0E7DF",
":+	c #9DA1A8",
"<+	c #B4B6B6",
"[+	c #7C8D8F",
"}+	c #A0A7AA",
"|+	c #D8D2CE",
"1+	c #9EA7B0",
"2+	c #F2E9E2",
"3+	c #D0CECB",
"4+	c #D39992",
"5+	c #81737A",
"6+	c #D99F94",
"7+	c #91757D",
"8+	c #9FA9A9",
"9+	c #ADB4B1",
"0+	c #74878F",
"a+	c #CDCCC8",
"b+	c #9CA7A7",
"c+	c #877979",
"d+	c #E7A698",
"e+	c #967B7F",
"f+	c #8B7C7B",
"g+	c #707370",
"h+	c #877D77",
"i+	c #88767A",
"j+	c #E1A498",
"k+	c #DDA197",
"l+	c #C89A96",
"m+	c #BCA5A5",
"n+	c #A3A5AB",
"o+	c #967F82",
"p+	c #3D696E",
"q+	c #9DA6AE",
"r+	c #CDCBC9",
"s+	c #E6DED9",
"t+	c #EBE4DD",
"u+	c #B0A2A5",
"v+	c #F5AD9D",
"w+	c #C0938A",
"x+	c #8F7B7F",
"y+	c #CC9B95",
"z+	c #B39597",
"A+	c #6F7E8A",
"B+	c #787475",
"C+	c #D49C93",
"D+	c #C6958D",
"E+	c #97827D",
"F+	c #A28882",
"                    . + @ # $ % & *                             ",
"              = - ; > , ' ) ! ' ~ { ] ^ /                       ",
"              ( _ :                   < [ }                     ",
"                | 1 2 3 4 5 6 7 8 < 9 0 a                       ",
"                                                                ",
"                                                                ",
"                            b                                   ",
"                          c d e                                 ",
"                        f g h i j                               ",
"                    k l m h h h m n o                           ",
"                p q r h h h h h h h m s t u                     ",
"              v s h h h h h h h h h w h h d x y                 ",
"            z A h h h h h h h h h h B C h h h D                 ",
"          E F h d G h F m h h H I J K L h h h w M               ",
"        N C h h F O P Q R h h m S T U V W X Y Z `               ",
"         .h Z ..+.@.#.$.h h h h h h h %.&.*.=.-.;.              ",
"        >.,.'.&.&.).V h h h U !.h h h ~.{.].^./.(.              ",
"        _.:.<.*.[.}.|.h h D 1.2.3.h h h 4.5.6.h 7.              ",
"        8.9.0.a.b.6.h h h c.d.e.f.h h h h h h 3.g.              ",
"          h.h h h h h h h i.j.j.k.h h h h h L l.                ",
"          m.n.w h h h h h o.p.q.r.h h h h s.t.      u.v.        ",
"      w.      x.y.h h h h z.A.B.C.h h r D.E.  F.G.H.I.J.        ",
"      K.L.M.N.O.P.Q.R.G A F A A $.S.T.U.    V.W.X.Y.Z.          ",
"      `. +X.W..+++    @+#+$+$+%+&+S.*+=+    -+;+>+,+'+          ",
"        )+!+~+{+]+    ^+i h h h h !.n /+    (+_+:+<+[+          ",
"        }+|+1+2+3+    D.4+h h h h i 5+6+7+  8+9+                ",
"            0+a+b+  c+d+e+h h h m U f+g+                        ",
"                      h+i+j+k+l+m+n+o+                          ",
"                        p+q+r+s+t+u+v+w+                        ",
"                          x+y+z+A+B+C+_.                        ",
"                             .L D+                              ",
"                              E+F+                              "};
