/* XPM */
static char * C:\Users\usuario\Documents\cannibal_xpm[] = {
"32 32 378 2",
"  	c None",
". 	c #A79EA5",
"+ 	c #579235",
"@ 	c #539427",
"# 	c #498635",
"$ 	c #CBB0AE",
"% 	c #9DA9AD",
"& 	c #659E36",
"* 	c #5A9D21",
"= 	c #589727",
"- 	c #CA9391",
"; 	c #C8CCCF",
"> 	c #6AA338",
", 	c #5C9E21",
"' 	c #4E8C30",
") 	c #679F3D",
"! 	c #5D9E23",
"~ 	c #BE6060",
"{ 	c #DAD7D7",
"] 	c #97A4A9",
"^ 	c #70A839",
"/ 	c #5E9F23",
"( 	c #599B23",
"_ 	c #376F40",
": 	c #6BA33B",
"< 	c #5D9F22",
"[ 	c #549525",
"} 	c #2F604A",
"| 	c #B73D44",
"1 	c #D4C2C0",
"2 	c #ADB5BA",
"3 	c #72AA3A",
"4 	c #5F9E26",
"5 	c #5C9F20",
"6 	c #478335",
"7 	c #6EA637",
"8 	c #5C9F21",
"9 	c #559625",
"0 	c #629741",
"a 	c #46784E",
"b 	c #768B8E",
"c 	c #A53B44",
"d 	c #CB9896",
"e 	c #AEB7BA",
"f 	c #768A8E",
"g 	c #72AA3B",
"h 	c #63A12A",
"i 	c #549429",
"j 	c #6AA140",
"k 	c #6CA535",
"l 	c #599B21",
"m 	c #6BA23D",
"n 	c #6DA43E",
"o 	c #D7DCDB",
"p 	c #C1C6C8",
"q 	c #76898C",
"r 	c #8A3E48",
"s 	c #C65655",
"t 	c #D8D3D2",
"u 	c #D7D9DA",
"v 	c #8AA296",
"w 	c #71A93D",
"x 	c #66A12F",
"y 	c #5A9C22",
"z 	c #599A22",
"A 	c #689C42",
"B 	c #68A037",
"C 	c #599A23",
"D 	c #579923",
"E 	c #73AB3B",
"F 	c #619742",
"G 	c #A8B5BA",
"H 	c #EBEDEA",
"I 	c #CBCDCA",
"J 	c #919A9C",
"K 	c #BC383F",
"L 	c #CDA9A7",
"M 	c #D6D7D9",
"N 	c #B8BEC2",
"O 	c #638A68",
"P 	c #6D763E",
"Q 	c #8F6825",
"R 	c #8E5A2C",
"S 	c #945B29",
"T 	c #985C2A",
"U 	c #945B28",
"V 	c #895C2D",
"W 	c #82692B",
"X 	c #835935",
"Y 	c #668841",
"Z 	c #6DA33E",
"` 	c #528548",
" .	c #7F8E90",
"..	c #A3A6A3",
"+.	c #888A88",
"@.	c #596A70",
"#.	c #9A3C45",
"$.	c #8A5456",
"%.	c #8B6B5D",
"&.	c #8F5E3C",
"*.	c #895A38",
"=.	c #9D5D21",
"-.	c #9F5D20",
";.	c #9E5D20",
">.	c #995C26",
",.	c #7B633B",
"'.	c #659841",
").	c #35664B",
"!.	c #6B7B7E",
"~.	c #737E84",
"{.	c #588658",
"].	c #598D43",
"^.	c #4C7E45",
"/.	c #64484A",
"(.	c #7A4D41",
"_.	c #905C2B",
":.	c #507E4A",
"<.	c #477948",
"[.	c #5D9243",
"}.	c #6CA33E",
"|.	c #4F814B",
"1.	c #688399",
"2.	c #638D73",
"3.	c #5B8F45",
"4.	c #6E5C45",
"5.	c #905B2D",
"6.	c #53824C",
"7.	c #71A93C",
"8.	c #6AA13F",
"9.	c #668398",
"0.	c #5B7C84",
"a.	c #679D41",
"b.	c #70A83C",
"c.	c #74693E",
"d.	c #9E5D21",
"e.	c #8F5B2E",
"f.	c #659744",
"g.	c #508447",
"h.	c #4F656F",
"i.	c #455C5E",
"j.	c #669C40",
"k.	c #6EA53D",
"l.	c #76663C",
"m.	c #99551D",
"n.	c #884618",
"o.	c #96531C",
"p.	c #98551D",
"q.	c #874718",
"r.	c #95521C",
"s.	c #9D5D20",
"t.	c #8F5C2E",
"u.	c #689B41",
"v.	c #568A42",
"w.	c #4A493F",
"x.	c #619642",
"y.	c #77663A",
"z.	c #9D5A1F",
"A.	c #6D3010",
"B.	c #921C15",
"C.	c #702910",
"D.	c #99561E",
"E.	c #9C5A1F",
"F.	c #911C14",
"G.	c #6D290F",
"H.	c #98561E",
"I.	c #8E5C2F",
"J.	c #5C8E45",
"K.	c #508344",
"L.	c #4D4A3B",
"M.	c #518546",
"N.	c #73623E",
"O.	c #99571E",
"P.	c #752310",
"Q.	c #D61820",
"R.	c #941D15",
"S.	c #94511C",
"T.	c #9A571E",
"U.	c #762210",
"V.	c #D71721",
"W.	c #8A1D13",
"X.	c #93511C",
"Y.	c #8A5931",
"Z.	c #4A493C",
"`.	c #71563C",
" +	c #9C5C21",
".+	c #824417",
"++	c #7B2712",
"@+	c #7D3D15",
"#+	c #9D5B1F",
"$+	c #9D5C20",
"%+	c #9E5C20",
"&+	c #834417",
"*+	c #9C5B20",
"=+	c #865830",
"-+	c #4D493D",
";+	c #70553B",
">+	c #9D5C21",
",+	c #936134",
"'+	c #876C4C",
")+	c #925D2F",
"!+	c #8D643E",
"~+	c #955D2B",
"{+	c #876C4D",
"]+	c #925E2F",
"^+	c #8C7653",
"/+	c #8B6744",
"(+	c #8D7754",
"_+	c #8D724E",
":+	c #9C5D22",
"<+	c #7F5733",
"[+	c #494B3A",
"}+	c #5F483E",
"|+	c #8F592A",
"1+	c #978E65",
"2+	c #C3B87C",
"3+	c #8A8B6D",
"4+	c #BFB57A",
"5+	c #8B8968",
"6+	c #D4C680",
"7+	c #888A6E",
"8+	c #CEC17E",
"9+	c #9F9E76",
"0+	c #CABF7E",
"a+	c #B5AC75",
"b+	c #865934",
"c+	c #694A38",
"d+	c #203935",
"e+	c #444943",
"f+	c #434B43",
"g+	c #1E2D2E",
"h+	c #201112",
"i+	c #242934",
"j+	c #33373F",
"k+	c #414A4D",
"l+	c #5A5F53",
"m+	c #5F675E",
"n+	c #8B8765",
"o+	c #707563",
"p+	c #928C66",
"q+	c #848264",
"r+	c #656B5C",
"s+	c #5F6354",
"t+	c #4B504D",
"u+	c #303843",
"v+	c #2E2F36",
"w+	c #201111",
"x+	c #1F3532",
"y+	c #4C4A3C",
"z+	c #1E2F31",
"A+	c #200F0E",
"B+	c #210907",
"C+	c #493F3A",
"D+	c #89582F",
"E+	c #888868",
"F+	c #A29E73",
"G+	c #727967",
"H+	c #908C66",
"I+	c #626D61",
"J+	c #8D8A65",
"K+	c #777B63",
"L+	c #888766",
"M+	c #878869",
"N+	c #9D9B71",
"O+	c #9F9C72",
"P+	c #815938",
"Q+	c #714D34",
"R+	c #210D0D",
"S+	c #1F3232",
"T+	c #434340",
"U+	c #1F161A",
"V+	c #210804",
"W+	c #201E1D",
"X+	c #4B4E41",
"Y+	c #9A5C23",
"Z+	c #89714D",
"`+	c #8A8160",
" @	c #B6AD76",
".@	c #7B735A",
"+@	c #B7AE77",
"@@	c #928B65",
"#@	c #ABA16E",
"$@	c #95906A",
"%@	c #A8A170",
"&@	c #988960",
"*@	c #9A5C24",
"=@	c #70533B",
"-@	c #1F1F22",
";@	c #1F1C1D",
">@	c #1F2425",
",@	c #212936",
"'@	c #1D1924",
")@	c #210B09",
"!@	c #1E3333",
"~@	c #4E533F",
"{@	c #995C24",
"]@	c #9C5D21",
"^@	c #995C25",
"/@	c #905C2F",
"(@	c #9B5C23",
"_@	c #8D5B30",
":@	c #9A5C25",
"<@	c #945C2A",
"[@	c #965C28",
"}@	c #955C2A",
"|@	c #705737",
"1@	c #1F3031",
"2@	c #210905",
"3@	c #210906",
"4@	c #1D2E36",
"5@	c #1C2833",
"6@	c #200B0B",
"7@	c #1D1620",
"8@	c #1C272F",
"9@	c #925B28",
"0@	c #62563B",
"a@	c #200D0D",
"b@	c #1E2329",
"c@	c #1D3134",
"d@	c #210A08",
"e@	c #1B3744",
"f@	c #875830",
"g@	c #995C23",
"h@	c #985C25",
"i@	c #515541",
"j@	c #1E272B",
"k@	c #210A07",
"l@	c #201416",
"m@	c #1D3138",
"n@	c #1C313A",
"o@	c #445046",
"p@	c #4F433E",
"q@	c #61442F",
"r@	c #714C33",
"s@	c #77533C",
"t@	c #775439",
"u@	c #5B4D45",
"v@	c #7C5537",
"w@	c #7A5538",
"x@	c #714E35",
"y@	c #644630",
"z@	c #534035",
"A@	c #4B4F47",
"B@	c #1F2226",
"C@	c #1F1419",
"D@	c #1F191D",
"E@	c #1F1A1E",
"F@	c #212931",
"G@	c #1E3032",
"H@	c #1F1A1F",
"I@	c #1E2D30",
"J@	c #1F2325",
"K@	c #202E29",
"L@	c #213A35",
"M@	c #444940",
"N@	c #1E2F34",
"O@	c #20322D",
"P@	c #1F292C",
"Q@	c #4B4A3C",
"R@	c #201A1A",
"S@	c #1F1B1E",
"T@	c #20322E",
"U@	c #201816",
"V@	c #4A4B3C",
"W@	c #1E2E31",
"X@	c #1F2B2D",
"Y@	c #1E3136",
"Z@	c #1F2929",
"`@	c #484A3D",
" #	c #3F4C46",
".#	c #1F302F",
"+#	c #201619",
"@#	c #1F1315",
"##	c #1E373B",
"$#	c #20151A",
"%#	c #1F1B1D",
"&#	c #384F46",
"*#	c #203E3A",
"=#	c #223D36",
"                                                                ",
"                .         + @           #                       ",
"                $ %       & *           =                       ",
"                - ;       > , '       ) !                       ",
"                ~ { ]     ^ / ( _     : < [           }         ",
"                | 1 2     3 4 5 6     7 8 9         0 a         ",
"      b         c d e f   g h 5 i   j k , l       m n           ",
"      o p q     r s t u v w x y z   A B C D     m E F           ",
"    G H I J       K L M N O P Q R S T U V W X Y Z g `           ",
"     ...+.@.      #.$.%.&.*.=.-.-.-.-.-.;.=.-.>.,.'.      ).    ",
"      !.~.{.].^.  /.(.;.-.=.-.-.-.-.-.-.;.=.-.-._.:.<.[.}.|.    ",
"        1.2.g g }.3.4.-.-.=.-.-.-.-.-.-.;.=.-.-.5.6.7.E 8.      ",
"        9.0.a.E E b.c.-.-.=.-.-.-.-.d.;.-.=.-.-.e.f.E 7.g.      ",
"        h.i.  j.E k.l.-.m.n.o.-.-.-.d.;.p.q.r.s.t.u.b.v.        ",
"          w.    x.}.y.z.A.B.C.D.-.-.d.E.A.F.G.H.I.J.K.          ",
"          L.      M.N.O.P.Q.R.S.;.-.-.T.U.V.W.X.Y.              ",
"          Z.        `. +.+++@+#+$+;.-.%+&+++@+*+=+              ",
"          -+        ;+>+,+'+)+!+~+{+]+^+/+(+_+:+<+              ",
"          [+        }+|+1+2+3+4+5+6+7+8+9+0+a+b+c+d+            ",
"          e+f+  g+h+i+j+k+l+m+n+o+p+o+q+r+s+t+u+v+w+x+          ",
"            y+z+A+B+C+D+E+F+G+H+I+J+K+L+M+N+O+P+Q+R+w+S+        ",
"            T+U+V+W+X+Y+Z+1+`+ @.@+@@@#@$@%@&@*@=@-@V+;@        ",
"          >@,@'@)@!@~@{@]@*@^@/@(@_@:@<@[@}@*@-.|@1@2@3@4@      ",
"        5@V+6@7@8@    9@;.-.-.-.-.=.-.-.>+-.-.d.0@  a@V+b@      ",
"        c@V+V+d@e@    f@=.-.-.-.;.g@-.-.=.;.d.h@i@j@k@V+l@      ",
"        m@3@V+k@n@    o@p@q@r@s@t@u@v@w@x@y@z@A@  B@C@V+D@      ",
"          >@E@F@        G@d@H@          I@d@J@        K@L@      ",
"              M@        N@3@E@          O@V+P@                  ",
"              Q@        R@V+S@          T@V+U@                  ",
"              V@      W@2@V+X@          Y@2@V+Z@                ",
"              `@ #    .#+#@###            $#k@%#                ",
"                &#                        *#=#                  "};
